<svg width="10" height="10" viewBox="0 0 10 10" fill="none" xmlns="http://www.w3.org/2000/svg">
<path d="M9.08151 1.0014C8.55093 0.426257 7.84748 0.0765767 7.09911 0.0159507C6.35073 -0.0446753 5.60712 0.18778 5.00353 0.671043C4.36767 0.158522 3.57623 -0.0738792 2.78858 0.0206387C2.00093 0.115157 1.27559 0.529573 0.758609 1.18043C0.241631 1.8313 -0.0285776 2.67026 0.00239652 3.52837C0.0333706 4.38648 0.363227 5.20001 0.92554 5.80512L4.6487 9.83981C4.69516 9.89057 4.75043 9.93086 4.81133 9.95835C4.87223 9.98584 4.93755 10 5.00353 10C5.0695 10 5.13482 9.98584 5.19572 9.95835C5.25662 9.93086 5.31189 9.89057 5.35835 9.83981L9.08151 5.80512C9.3727 5.48977 9.60369 5.11534 9.76129 4.70322C9.91888 4.2911 10 3.84937 10 3.40326C10 2.95715 9.91888 2.51542 9.76129 2.10329C9.60369 1.69117 9.3727 1.31674 9.08151 1.0014ZM8.37686 5.0415L5.00353 8.69168L1.63019 5.0415C1.33293 4.71802 1.13043 4.30662 1.04809 3.8589C0.965762 3.41118 1.00727 2.94709 1.1674 2.52483C1.32753 2.10257 1.59916 1.74096 1.94821 1.48536C2.29726 1.22975 2.70819 1.09154 3.12945 1.08805C3.69223 1.08954 4.23146 1.33302 4.62871 1.76501C4.67517 1.81577 4.73044 1.85606 4.79134 1.88356C4.85224 1.91105 4.91756 1.92521 4.98354 1.92521C5.04951 1.92521 5.11483 1.91105 5.17573 1.88356C5.23663 1.85606 5.2919 1.81577 5.33836 1.76501C5.74732 1.38098 6.27564 1.17965 6.8164 1.20179C7.35716 1.22393 7.86996 1.46788 8.25102 1.88426C8.63207 2.30064 8.85292 2.85835 8.86886 3.44452C8.8848 4.03069 8.69465 4.60153 8.33688 5.0415H8.37686Z" fill="#31353A"/>
</svg>
