<svg width="10" height="10" viewBox="0 0 10 10" fill="none" xmlns="http://www.w3.org/2000/svg">
<path d="M5 0C4.0111 0 3.0444 0.293245 2.22215 0.842652C1.3999 1.39206 0.759043 2.17295 0.380605 3.08658C0.00216642 4.00021 -0.0968502 5.00555 0.0960758 5.97545C0.289002 6.94535 0.765206 7.83627 1.46447 8.53553C2.16373 9.23479 3.05465 9.711 4.02455 9.90392C4.99445 10.0969 5.99979 9.99783 6.91342 9.6194C7.82705 9.24096 8.60794 8.60009 9.15735 7.77785C9.70675 6.9556 10 5.9889 10 5C10 4.34339 9.87067 3.69321 9.6194 3.08658C9.36812 2.47995 8.99983 1.92876 8.53553 1.46447C8.07124 1.00017 7.52005 0.631876 6.91342 0.380602C6.30679 0.129329 5.65661 0 5 0ZM5 9C4.20888 9 3.43552 8.7654 2.77772 8.32588C2.11992 7.88635 1.60723 7.26164 1.30448 6.53073C1.00173 5.79983 0.92252 4.99556 1.07686 4.21964C1.2312 3.44371 1.61216 2.73098 2.17157 2.17157C2.73098 1.61216 3.44372 1.2312 4.21964 1.07686C4.99556 0.922518 5.79983 1.00173 6.53074 1.30448C7.26164 1.60723 7.88635 2.11992 8.32588 2.77772C8.7654 3.43551 9 4.20887 9 5C9 6.06086 8.57857 7.07828 7.82843 7.82842C7.07828 8.57857 6.06087 9 5 9ZM6.55 5.315L5.5 4.71V2.5C5.5 2.36739 5.44732 2.24021 5.35355 2.14645C5.25979 2.05268 5.13261 2 5 2C4.86739 2 4.74022 2.05268 4.64645 2.14645C4.55268 2.24021 4.5 2.36739 4.5 2.5V5C4.5 5 4.5 5.04 4.5 5.06C4.50296 5.09445 4.5114 5.12821 4.525 5.16C4.5353 5.18966 4.54871 5.21816 4.565 5.245C4.57868 5.27342 4.59545 5.30025 4.615 5.325L4.695 5.39L4.74 5.435L6.04 6.185C6.1162 6.22819 6.20241 6.2506 6.29 6.25C6.40071 6.25077 6.50854 6.21478 6.59659 6.14767C6.68464 6.08056 6.74793 5.98612 6.77653 5.87916C6.80513 5.77221 6.79742 5.65879 6.75461 5.55669C6.7118 5.45459 6.63632 5.36958 6.54 5.315H6.55Z" fill="#31353A"/>
</svg>
