<svg width="10" height="10" viewBox="0 0 10 10" fill="none" xmlns="http://www.w3.org/2000/svg">
<path d="M5 0C4.0111 0 3.0444 0.293245 2.22215 0.842652C1.3999 1.39206 0.759043 2.17295 0.380605 3.08658C0.00216642 4.00021 -0.0968502 5.00555 0.0960758 5.97545C0.289002 6.94535 0.765206 7.83627 1.46447 8.53553C2.16373 9.23479 3.05465 9.711 4.02455 9.90392C4.99445 10.0969 5.99979 9.99783 6.91342 9.6194C7.82705 9.24096 8.60794 8.60009 9.15735 7.77785C9.70675 6.9556 10 5.9889 10 5C10 4.34339 9.87067 3.69321 9.6194 3.08658C9.36812 2.47995 8.99983 1.92876 8.53553 1.46447C8.07124 1.00017 7.52005 0.631876 6.91342 0.380602C6.30679 0.129329 5.65661 0 5 0ZM5.5 8.965V8.5C5.5 8.36739 5.44732 8.24021 5.35355 8.14644C5.25979 8.05268 5.13261 8 5 8C4.86739 8 4.74022 8.05268 4.64645 8.14644C4.55268 8.24021 4.5 8.36739 4.5 8.5V8.965C3.61999 8.8534 2.80204 8.45245 2.17479 7.8252C1.54755 7.19796 1.1466 6.38001 1.035 5.5H1.5C1.63261 5.5 1.75979 5.44732 1.85356 5.35355C1.94732 5.25978 2 5.13261 2 5C2 4.86739 1.94732 4.74021 1.85356 4.64645C1.75979 4.55268 1.63261 4.5 1.5 4.5H1.035C1.1466 3.61999 1.54755 2.80204 2.17479 2.17479C2.80204 1.54755 3.61999 1.1466 4.5 1.035V1.5C4.5 1.63261 4.55268 1.75978 4.64645 1.85355C4.74022 1.94732 4.86739 2 5 2C5.13261 2 5.25979 1.94732 5.35355 1.85355C5.44732 1.75978 5.5 1.63261 5.5 1.5V1.035C6.38001 1.1466 7.19796 1.54755 7.82521 2.17479C8.45245 2.80204 8.8534 3.61999 8.965 4.5H8.5C8.36739 4.5 8.24022 4.55268 8.14645 4.64645C8.05268 4.74021 8 4.86739 8 5C8 5.13261 8.05268 5.25978 8.14645 5.35355C8.24022 5.44732 8.36739 5.5 8.5 5.5H8.965C8.8534 6.38001 8.45245 7.19796 7.82521 7.8252C7.19796 8.45245 6.38001 8.8534 5.5 8.965ZM6.57 2.775L4.07 3.835C3.95346 3.8855 3.8605 3.97845 3.81 4.095L2.75 6.595C2.71062 6.68669 2.69958 6.78806 2.71829 6.88607C2.737 6.98409 2.78462 7.07427 2.855 7.145C2.94732 7.23921 3.07312 7.29312 3.205 7.295C3.27419 7.29506 3.34251 7.27969 3.405 7.25L5.905 6.19C6.02155 6.1395 6.1145 6.04654 6.165 5.93L7.225 3.43C7.26364 3.33838 7.27408 3.23732 7.255 3.13973C7.23591 3.04214 7.18816 2.95246 7.11785 2.88215C7.04754 2.81184 6.95786 2.76409 6.86027 2.745C6.76268 2.72592 6.66162 2.73636 6.57 2.775ZM5.325 5.325L4.185 5.825L4.685 4.685L5.825 4.185L5.325 5.325Z" fill="#00D38B"/>
</svg>
